<svg xmlns="http://www.w3.org/2000/svg" width="1157" height="405" viewBox="0 0 1157 405" fill="none"><path d="M419.19 301.465C423.741 295.477 426.045 288.429 426.045 280.481C426.045 271.493 422.755 263.647 416.285 257.177C410.002 250.718 402.121 247.442 392.861 247.442H360.406C355.853 247.442 352.667 250.623 352.667 255.179V359.974C352.667 364.455 355.919 367.71 360.406 367.71H396.73C406.204 367.71 414.417 364.305 421.136 357.586C427.953 350.775 431.411 342.561 431.411 333.177V328.563C431.411 321.691 429.503 315.2 425.744 309.288C423.908 306.307 421.708 303.682 419.19 301.465ZM399.762 289.065C397.715 291.207 394.923 292.245 391.219 292.245H375.738V270.507H392.861C395.929 270.507 397.999 271.328 400.011 273.335C402.095 275.419 402.986 277.556 402.986 280.481C402.983 284.147 402.02 286.717 399.762 289.065ZM375.738 315.31H395.087C398.646 315.31 401.748 316.611 404.322 319.178C407.022 321.884 408.337 324.955 408.337 328.565V333.18C408.337 336.285 407.218 338.915 404.92 341.22C402.584 343.553 399.982 344.64 396.73 344.64H375.741L375.738 315.31Z" fill="#333333"></path><path d="M491.174 245.805C480.009 245.805 470.344 249.812 462.445 257.716C454.547 265.614 450.54 275.279 450.54 286.439V329.16C450.54 340.316 454.55 349.981 462.445 357.885C470.347 365.786 480.012 369.796 491.174 369.796C502.339 369.796 511.998 365.789 519.897 357.885C527.798 349.984 531.808 340.319 531.808 329.163V286.441C531.808 275.285 527.795 265.62 519.897 257.719C511.998 249.812 502.339 245.805 491.174 245.805ZM473.608 286.436C473.608 281.46 475.261 277.488 478.815 273.929C482.214 270.526 486.262 268.87 491.177 268.87C496.094 268.87 500.136 270.526 503.53 273.932C507.089 277.485 508.743 281.46 508.743 286.439V329.16C508.743 334.219 507.138 338.024 503.53 341.522C500.026 345.029 495.982 346.732 491.177 346.732C486.366 346.732 482.31 345.011 478.751 341.45C475.241 338.055 473.611 334.15 473.611 329.16L473.608 286.436Z" fill="#333333"></path><path d="M694.753 247.439H668.855C664.296 247.439 661.116 250.62 661.116 255.173V359.971C661.116 364.455 664.368 367.707 668.855 367.707H698.624C709.486 367.707 718.896 363.802 726.613 356.094C734.314 348.384 738.217 338.967 738.217 328.109V290.753C738.217 278.9 733.913 268.588 725.419 260.094C717.023 251.695 706.711 247.439 694.753 247.439ZM698.627 344.637H684.186V270.507H694.753C700.483 270.507 705.155 272.45 709.049 276.463C713.158 280.571 715.153 285.246 715.153 290.756V328.114C715.153 332.798 713.597 336.478 710.235 339.731C706.899 343.076 703.204 344.637 698.627 344.637Z" fill="#333333"></path><path d="M824.065 344.637H785.808V315.163H817.662C821.987 315.163 825.251 311.835 825.251 307.423V299.834C825.251 295.275 822.125 292.095 817.662 292.095H785.808V270.507H823.022C827.43 270.507 830.761 267.18 830.761 262.768V255.176C830.761 250.695 827.509 247.442 823.022 247.442H770.474C765.917 247.442 762.734 250.623 762.734 255.176V359.974C762.734 364.458 765.99 367.71 770.474 367.71H824.068C828.546 367.71 831.805 364.455 831.805 359.974V352.376C831.802 347.892 828.544 344.637 824.065 344.637Z" fill="#333333"></path><path d="M910.016 252.799C908.914 249.495 906.125 247.439 902.736 247.439H888.746C885.306 247.439 882.577 249.486 881.432 252.944L849.639 356.918C849.223 357.837 849.012 358.864 849.012 359.974C849.012 364.455 852.264 367.71 856.742 367.71H864.632C868.214 367.71 871.183 365.467 871.999 362.212L881.397 331.685H910.074L919.4 362.408L919.551 362.827C920.771 365.889 923.5 367.716 926.862 367.716H934.749C939.158 367.716 942.488 364.391 942.488 359.98C942.488 358.864 942.269 357.832 941.922 357.12L910.016 252.799ZM904.318 308.617H887.255L895.743 279.854L904.318 308.617Z" fill="#333333"></path><path d="M1028.5 247.439H1020.91C1016.43 247.439 1013.17 250.695 1013.17 255.173V331.679C1013.17 336.047 1011.81 339.401 1008.86 342.255C1005.85 345.261 1002.4 346.724 998.286 346.724C994.123 346.724 990.744 345.287 987.63 342.179C984.724 339.366 983.253 335.839 983.253 331.679V255.173C983.253 250.617 980.064 247.439 975.516 247.439H967.921C963.437 247.439 960.182 250.695 960.182 255.173V331.679C960.182 342.145 963.938 351.208 971.344 358.621C978.754 366.028 987.821 369.783 998.286 369.783C1008.75 369.783 1017.83 366.016 1025.27 358.569C1032.55 351.113 1036.24 342.067 1036.24 331.676V255.17C1036.24 250.622 1033.05 247.439 1028.5 247.439Z" fill="#333333"></path><path d="M1108.35 307.307L1135.21 258.127L1135.72 256.725C1136.44 253.478 1135.38 251.266 1134.34 249.986C1133.51 248.951 1131.62 247.225 1128.28 247.225H1120.54C1117.35 247.225 1114.68 248.982 1113.65 251.628L1095.73 284.302L1077.89 251.813C1076.78 248.982 1074.11 247.225 1070.93 247.225H1063.19C1059.83 247.225 1057.95 248.956 1057.12 249.986C1056.09 251.263 1055.02 253.472 1055.81 256.936L1056.35 258.332L1083.12 307.309L1056.34 356.128L1055.92 357.154C1054.86 360.696 1056.12 363.116 1056.96 364.243C1057.78 365.359 1059.7 367.238 1063.26 367.238H1071.14C1074.21 367.238 1076.83 365.495 1078.08 362.685L1095.74 330.389L1113.34 362.572C1114.64 365.495 1117.26 367.241 1120.34 367.241H1128.22C1131.76 367.241 1133.68 365.365 1134.51 364.249C1135.36 363.118 1136.61 360.696 1135.5 356.992L1108.35 307.307Z" fill="#333333"></path><path d="M635.812 356.935L614.84 316.972C617.465 315.466 619.94 313.561 622.209 311.291C628.83 304.674 632.181 296.611 632.181 287.33V281.378C632.181 271.993 628.827 263.881 622.209 257.266C615.696 250.747 607.633 247.442 598.245 247.442H564.461C559.907 247.442 556.721 250.623 556.721 255.176V359.974C556.721 364.458 559.977 367.71 564.461 367.71H572.055C576.461 367.71 579.786 364.386 579.786 359.974V321.263H592.073L613.69 362.585C614.996 365.536 617.621 367.303 620.709 367.303H628.599C632.143 367.303 634.066 365.426 634.887 364.311C635.731 363.174 636.989 360.743 635.925 357.216C635.899 357.12 635.861 357.025 635.812 356.935ZM609.119 281.378V287.33C609.119 290.36 608.144 292.63 605.849 294.922C603.551 297.218 601.278 298.198 598.248 298.198H579.789V270.507H598.248C601.258 270.507 603.718 271.508 605.748 273.534C608.113 276.003 609.119 278.348 609.119 281.378Z" fill="#333333"></path><path d="M285.225 299.111H282.904C282.337 299.111 282.126 298.828 282.126 298.336V297.703C282.126 297.139 281.846 296.928 281.351 296.928C281.14 296.928 281.002 296.928 280.929 297.067C278.322 299.111 275.503 300.097 272.398 300.097C268.663 300.097 265.494 298.756 262.811 296.081C260.131 293.404 258.792 290.227 258.792 286.495V275.78C258.792 272.045 260.131 268.874 262.811 266.194C265.419 263.516 268.663 262.247 272.398 262.247C275.006 262.247 277.405 262.88 279.518 264.291C279.66 264.361 279.799 264.433 280.082 264.433C280.577 264.433 280.785 264.222 280.785 263.797V248.714C280.785 248.148 281.068 247.937 281.56 247.937H285.225C285.72 247.937 285.928 248.15 285.928 248.714V298.336C285.931 298.831 285.72 299.111 285.225 299.111ZM280.785 275.78C280.785 273.456 280.013 271.481 278.319 269.859C276.627 268.168 274.653 267.393 272.398 267.393C270.073 267.393 268.029 268.168 266.408 269.859C264.786 271.481 263.939 273.453 263.939 275.78V286.495C263.939 288.819 264.786 290.794 266.408 292.485C268.027 294.107 270.071 294.951 272.398 294.951C274.725 294.951 276.697 294.104 278.319 292.485C280.013 290.794 280.785 288.819 280.785 286.495V275.78Z" fill="#333333"></path><path d="M319.901 283.466H300.727C300.233 283.466 299.95 283.746 299.95 284.24V286.426C299.95 288.823 300.8 290.794 302.421 292.416C304.11 294.108 306.084 294.955 308.412 294.955C311.369 294.955 314.049 294.108 316.449 292.416C316.802 292.136 317.154 292.205 317.435 292.555L319.551 295.588C319.834 295.938 319.762 296.363 319.337 296.646C316.165 298.97 312.497 300.098 308.412 300.098C304.676 300.098 301.505 298.756 298.825 296.079C296.145 293.402 294.803 290.228 294.803 286.423V275.145C294.803 271.551 296.073 268.522 298.614 265.983C301.149 263.517 304.182 262.248 307.706 262.248C311.3 262.248 314.335 263.517 316.871 266.053C319.409 268.591 320.606 271.621 320.606 275.145V282.688C320.603 283.182 320.392 283.466 319.901 283.466ZM315.457 275.145C315.457 273.032 314.752 271.199 313.202 269.649C311.653 268.1 309.823 267.394 307.703 267.394C305.593 267.394 303.757 268.1 302.277 269.649C300.727 271.199 299.95 273.035 299.95 275.145V277.542C299.95 278.036 300.233 278.317 300.727 278.317H314.752C315.249 278.317 315.457 278.036 315.457 277.542V275.145Z" fill="#333333"></path><path d="M51.4243 139.397V175.422C51.4243 182.17 53.7574 187.993 58.6375 192.879C63.5263 197.767 69.1147 200.092 76.0966 200.092C82.8472 200.092 88.6669 197.767 93.3215 192.879C98.2103 187.99 100.769 182.167 100.769 175.422V97.6818C100.769 96.0513 101.466 95.3574 103.096 95.3574H115.198C116.829 95.3574 117.76 96.0513 117.76 97.6818V175.422C117.76 186.828 113.568 196.602 105.424 204.749C97.2765 212.893 87.5018 217.085 76.0937 217.085C64.6914 217.085 54.6825 212.893 46.5326 204.749C38.3885 196.605 34.4307 186.828 34.4307 175.422V156.862L51.4243 139.397Z" fill="#333333"></path><path d="M387.864 123.383L368.621 176.39C368.156 177.321 367.687 177.552 366.756 177.552C366.059 177.552 365.36 177.321 365.123 176.39L336.264 96.8108C335.567 95.1803 334.639 94.2754 333.24 94.2754H320.67C318.343 94.2754 317.412 95.6486 318.343 97.9731L359.537 211.508C360.003 212.904 360.702 214.251 362.099 214.251H371.639C372.804 214.251 373.732 213.008 374.198 211.612L402.039 134.45L387.864 123.383Z" fill="#333333"></path><path d="M564.113 142.266V211.466C564.113 213.091 563.182 214.022 561.551 214.022H549.684C548.053 214.022 547.122 213.094 547.122 211.466V162.121L564.113 142.266Z" fill="#333333"></path><path d="M672.991 113.624C665.83 110.874 658.226 109.539 650.172 109.539C645.751 109.539 642.028 110.929 638.77 114.193C635.74 117.217 634.346 120.941 634.346 125.367C634.346 133.046 638.07 137.935 645.751 140.028L670.19 146.547C678.334 148.64 684.619 153.066 689.508 159.352C694.162 165.634 696.721 172.853 696.721 180.766C696.721 191.006 693 199.615 685.781 206.834C678.568 213.816 669.955 217.54 659.947 217.54C642.953 217.54 627.127 213.348 612.932 204.735C611.304 203.805 611.067 202.639 612.004 201.012L618.055 190.772C618.752 189.375 619.914 189.375 621.31 190.072C633.178 197.057 646.217 200.549 659.947 200.549C665.304 200.549 669.955 198.685 673.913 194.732C677.64 191.009 679.733 186.351 679.733 180.766C679.733 176.808 678.334 173.081 675.775 169.595C673.214 166.105 669.955 164.243 665.998 163.078L641.331 156.328C634.112 154.466 628.292 150.508 623.872 144.691C619.452 138.869 617.353 132.355 617.353 125.373C617.353 116.295 620.382 108.611 626.896 102.097C633.412 95.5778 641.097 92.5566 650.172 92.5566C660.343 92.5566 670.169 94.2913 679.487 97.9224L672.991 113.624Z" fill="#333333"></path><path d="M744.977 70.4109C742.883 72.7382 740.088 73.9033 736.832 73.9033C733.806 73.9033 731.016 72.7382 728.917 70.4109C726.589 68.3177 725.427 65.5221 725.427 62.5009C725.427 59.2427 726.592 56.4499 728.917 54.3568C731.016 52.0237 733.806 51.0957 736.832 51.0957C740.091 51.0957 742.883 52.0266 744.977 54.3568C747.304 56.4528 748.466 59.2456 748.466 62.5009C748.466 65.525 747.304 68.3206 744.977 70.4109ZM742.883 213.787H731.016C729.151 213.787 728.457 212.856 728.457 211.229V97.6446C728.457 96.0141 729.151 95.3202 731.016 95.3202H742.883C744.508 95.3202 745.442 96.017 745.442 97.6446V211.229C745.445 212.856 744.511 213.787 742.883 213.787Z" fill="#333333"></path><path d="M950.839 161.917H887.531C885.906 161.917 884.969 162.848 884.969 164.476V171.689C884.969 179.602 887.765 186.118 893.119 191.476C898.702 197.058 905.221 199.854 912.9 199.854C922.675 199.854 931.521 197.058 939.44 191.476C940.605 190.542 941.767 190.773 942.698 191.938L949.68 201.947C950.608 203.109 950.38 204.508 948.983 205.439C938.509 213.121 926.404 216.845 912.906 216.845C900.567 216.845 890.095 212.418 881.251 203.578C872.411 194.731 867.984 184.259 867.984 171.686V134.449C867.984 122.576 872.176 112.57 880.555 104.186C888.933 96.0417 898.942 91.8555 910.575 91.8555C922.446 91.8555 932.455 96.0446 940.833 104.42C949.212 112.798 953.169 122.81 953.169 134.449V159.35C953.167 160.989 952.47 161.917 950.839 161.917ZM936.173 134.455C936.173 127.47 933.846 121.417 928.726 116.294C923.608 111.176 917.557 108.849 910.57 108.849C903.588 108.849 897.537 111.174 892.651 116.294C887.528 121.414 884.966 127.468 884.966 134.455V142.368C884.966 143.996 885.9 144.927 887.528 144.927H933.846C935.479 144.927 936.173 143.996 936.173 142.368V134.455Z" fill="#333333"></path><path d="M292.003 130.281V211.494C292.003 213.122 291.072 214.053 289.444 214.053H277.574C275.712 214.053 275.015 213.122 275.015 211.494V130.281H292.003Z" fill="#333333"></path><path d="M434.718 165.359V134.67C434.718 122.802 438.91 112.793 447.288 104.412C455.667 96.2653 465.675 92.0762 477.315 92.0762C489.186 92.0762 499.197 96.2653 507.576 104.644C515.954 113.022 519.912 123.034 519.912 134.667V159.577C519.912 161.204 519.218 162.135 517.584 162.135H454.276C452.645 162.135 451.717 163.066 451.717 164.697V171.91C451.717 174.029 451.92 176.05 452.316 177.975L434.718 165.359ZM502.921 134.67C502.921 127.688 500.591 121.637 495.471 116.52C490.348 111.394 484.297 109.073 477.315 109.073C470.336 109.073 464.279 111.394 459.393 116.52C454.276 121.637 451.717 127.691 451.717 134.67V142.589C451.717 144.216 452.645 145.144 454.276 145.144H500.591C502.224 145.144 502.921 144.216 502.921 142.589V134.67Z" fill="#333333"></path><path d="M807.191 126.89V174.535C807.191 181.985 809.749 188.27 814.869 193.387C819.992 198.507 826.275 201.069 833.725 201.069C839.776 201.069 846.061 199.204 852.346 195.252C853.971 194.321 854.902 194.552 856.07 195.949L862.821 205.492C863.751 206.886 863.517 208.054 862.121 208.982C853.74 215.035 844.199 218.06 833.725 218.06C821.623 218.06 811.611 213.87 802.999 205.258C794.386 196.645 790.191 186.637 790.191 174.532V120.995L807.191 126.89Z" fill="#333333"></path><path d="M220.821 181.91V134.086C220.821 127.338 218.494 121.522 213.605 116.867C208.719 111.978 202.9 109.645 196.152 109.645C189.398 109.645 183.581 111.978 178.693 116.867C174.041 121.522 171.479 127.338 171.479 134.086V211.83C171.479 213.454 170.78 214.388 168.918 214.388H157.047C155.417 214.388 154.486 213.457 154.486 211.83V134.086C154.486 122.687 158.675 112.906 166.825 104.759C174.969 96.6122 184.744 92.6543 196.152 92.6543C207.554 92.6543 217.332 96.6093 225.476 104.759C233.626 112.903 237.812 122.684 237.812 134.086V172.569L220.821 181.91Z" fill="#333333"></path><path d="M925.919 43.1381C923.525 46.1361 920.926 50.9324 918.324 53.9275C915.332 56.5266 911.337 62.7221 908.538 65.1159C908.538 65.7144 906.743 67.7121 906.743 67.7121C905.745 70.5106 904.941 69.9093 903.548 71.1091C901.345 73.3092 898.951 73.5086 897.352 72.3089C893.95 70.1117 899.55 62.3174 902.345 59.1227C902.744 58.5243 902.744 58.1253 902.744 57.5269C903.545 56.1276 904.144 54.5317 904.941 53.332C905.742 52.5311 906.341 52.5311 906.942 52.1351C906.743 50.7329 908.538 48.741 908.94 47.5412C909.937 46.3414 909.541 44.3437 910.741 43.1439C912.337 41.7446 912.736 40.7443 913.531 38.9489C914.337 38.9489 915.534 37.5526 915.534 37.5526C915.933 35.7543 916.332 33.7566 917.13 32.155C917.13 32.155 917.732 31.357 918.131 31.357C919.726 29.5588 919.929 26.7631 921.53 25.1615C922.727 24.3635 925.127 23.9646 926.726 24.3635C929.518 25.1615 932.719 26.3613 935.113 29.9577C935.512 35.7456 929.518 39.5416 925.919 43.1381Z" fill="#333333"></path><path d="M582.376 92.1328C574.567 92.1328 570.08 95.7235 564.298 105.842H563.963V94.278H532.161V104.397H541.306C545.356 104.397 546.712 105.27 546.712 109.468L547.125 161.452L564.116 141.501L564.347 120.91C564.347 111.593 570.326 99.7074 582.185 99.7074C584.353 99.7074 586.62 99.9878 588.21 101.722C583.003 101.864 578.641 104.897 578.641 110.393C578.641 116.322 583.261 119.647 588.898 119.647C595.981 119.647 599.884 114.278 599.884 107.768C599.884 97.2095 591.633 92.1328 582.376 92.1328Z" fill="#333333"></path><path d="M679.481 97.9124C684.815 97.9124 689.015 94.6108 691.591 88.3574H701.245V149.873H689.938C688.099 134.424 682.184 122.723 672.987 113.625L679.481 97.9124Z" fill="#333333"></path><path d="M291.819 51.0088H275.233V72.6195H291.819V51.0088Z" fill="#333333"></path><path d="M289.619 88.4932C283.891 97.1663 279.194 100.268 261.847 101.642V107.14C266.184 107.14 272.752 106.551 274.585 111.818C275.207 113.692 275.03 111.622 275.019 130.414H292.01C292.01 111.622 292.605 98.6119 294.435 88.4932H289.619Z" fill="#333333"></path><path d="M413.889 102.415C421.507 102.415 421.507 102.652 423.886 102.652C425.554 102.652 427.454 100.987 427.454 98.3679C427.454 95.9914 425.551 94.3262 423.886 94.3262C421.507 94.3262 420.076 95.5144 404.614 95.5144H403.9C387.719 95.5144 387.248 94.3262 384.866 94.3262C382.966 94.3262 381.058 95.9914 381.058 98.3679C381.058 100.987 382.966 102.652 384.866 102.652C387.245 102.652 387.485 102.415 395.574 102.415L387.864 124.243L402.047 135.131L413.889 102.415Z" fill="#333333"></path><path d="M468.722 198.108C477.185 203.301 487.063 205.33 495.45 205.33C512.094 205.33 519.66 199.276 521.175 199.276C522.433 199.276 522.433 200.788 522.433 201.297C522.433 202.558 503.268 217.435 482.845 217.435C462.166 217.435 434.721 207.467 434.721 165.355L452.313 177.975C455.716 187.319 461.691 193.792 468.722 198.108Z" fill="#333333"></path><path d="M790.198 121.014V111.939C784.366 111.493 777.222 111.939 771.617 114.182L770.047 113.06C772.738 105.44 781.261 100.276 789.784 100.276C793.595 98.0356 793.372 77.1159 796.512 73.3083C797.859 71.7385 802.392 68.8214 805.766 65.9072C807.336 68.3733 803.074 98.2611 807.336 98.9347C822.586 101.623 838.458 102.3 852.809 97.8129C855.723 100.056 852.809 102.751 851.462 104.766C839.348 115.98 822.893 111.271 807.194 111.722V126.906L790.198 121.014Z" fill="#333333"></path><path d="M51.4419 95.374H18.1543V108.092H34.4338V156.861L51.4246 139.396L51.4419 95.374Z" fill="#333333"></path><path d="M239.036 205.602C237.347 200.453 237.342 184.679 237.342 171.707L220.585 181.048L221.016 199.34C221.016 206.984 222.071 213.292 223.592 218.265C233.936 214.443 244.494 211.158 253.167 208.403V202.407C250.282 204.362 243.65 205.428 239.036 205.602Z" fill="#333333"></path></svg>